# xmcd
#
# Track frame offsets: 
#        150
#        17560
#        34607
#        53862
#        71205
#        90347
#        109802
#        132690
#        151490
#        168180
#        188185
#
# Disc length: 2847 seconds
#
# Revision: 0
# Processed by: cddbd v1.5PL3 Copyright (c) Steve Scherf et al.
# Submitted via: ExactAudioCopy v0.95a3
#
DISCID=8f0b1d0b
DTITLE=Chocolate - henry
DYEAR=2002
DGENRE=JPop
TTITLE0=GOD.LOVE.BEAT
TTITLE1=Roller Girl
TTITLE2=At The Sad Night
TTITLE3=Pink
TTITLE4=Nicole
TTITLE5=My Chicago Bag
TTITLE6=40 Winks
TTITLE7=Broadway
TTITLE8=Open Sesame
TTITLE9=justine
TTITLE10=Las Vegas
EXTD=
EXTT0=
EXTT1=
EXTT2=
EXTT3=
EXTT4=
EXTT5=
EXTT6=
EXTT7=
EXTT8=
EXTT9=
EXTT10=
PLAYORDER=
